<?xml version="1.0" encoding="UTF-8" standalone="no"?>
<!-- Created with Inkscape (http://www.inkscape.org/) -->

<svg
   xmlns:dc="http://purl.org/dc/elements/1.1/"
   xmlns:cc="http://creativecommons.org/ns#"
   xmlns:rdf="http://www.w3.org/1999/02/22-rdf-syntax-ns#"
   xmlns:svg="http://www.w3.org/2000/svg"
   xmlns="http://www.w3.org/2000/svg"
   xmlns:sodipodi="http://sodipodi.sourceforge.net/DTD/sodipodi-0.dtd"
   xmlns:inkscape="http://www.inkscape.org/namespaces/inkscape"
   version="1.1"
   width="18"
   height="18"
   id="svg3995"
   inkscape:version="0.48.3.1 r9886"
   sodipodi:docname="gh.svg">
  <sodipodi:namedview
     pagecolor="#ffffff"
     bordercolor="#666666"
     borderopacity="1"
     objecttolerance="10"
     gridtolerance="10"
     guidetolerance="10"
     inkscape:pageopacity="0"
     inkscape:pageshadow="2"
     inkscape:window-width="823"
     inkscape:window-height="516"
     id="namedview7"
     showgrid="false"
     inkscape:zoom="11.8"
     inkscape:cx="10"
     inkscape:cy="9.0254237"
     inkscape:window-x="-49"
     inkscape:window-y="24"
     inkscape:window-maximized="0"
     inkscape:current-layer="svg3995" />
  <defs
     id="defs3997" />
  <metadata
     id="metadata4000">
    <rdf:RDF>
      <cc:Work
         rdf:about="">
        <dc:format>image/svg+xml</dc:format>
        <dc:type
           rdf:resource="http://purl.org/dc/dcmitype/StillImage" />
        <dc:title />
      </cc:Work>
    </rdf:RDF>
  </metadata>
  <g
     transform="matrix(0.8999996,0,0,0.8999996,0,3.6000064)"
     id="layer1">
    <path
       d="M 9.9994226,-3.5059419 C 4.4778151,-3.5059419 0,0.97113635 0,6.4942785 c 0,4.4180205 2.8651339,8.1660465 6.8390701,9.4885445 0.5002567,0.09166 0.6827652,-0.217009 0.6827652,-0.481963 0,-0.237389 -0.00866,-0.866441 -0.013446,-1.700897 C 4.7264398,14.404211 4.1396865,12.45948 4.1396865,12.45948 3.6850417,11.304328 3.0294104,10.996709 3.0294104,10.996709 c -0.9078776,-0.620394 0.068572,-0.607932 0.068572,-0.607932 1.0035825,0.07078 1.5318324,1.030655 1.5318324,1.030655 0.8920392,1.528026 2.3404443,1.086764 2.9101928,0.830957 0.090917,-0.6463 0.349179,-1.087009 0.6347592,-1.336923 C 5.9542146,10.660974 3.6197865,9.8031905 3.6197865,5.9712465 c 0,-1.0921053 0.389941,-1.9840831 1.0294885,-2.6833004 C 4.5463869,3.0350246 4.2032246,2.0178138 4.747313,0.64147895 c 0,0 0.8395519,-0.2688824 2.7497841,1.02519145 0.7975615,-0.2222271 1.6531972,-0.3327268 2.5034929,-0.3370239 0.84919,0.00429 1.704764,0.1147966 2.503554,0.3370239 1.909005,-1.29407385 2.74739,-1.02519145 2.74739,-1.02519145 0.545254,1.37633485 0.202153,2.39354565 0.09951,2.64646715 0.640713,0.6992173 1.02777,1.5911951 1.02777,2.6833004 0,3.841582 -2.338052,4.6868425 -4.565785,4.9342995 0.359001,0.308908 0.678898,0.919174 0.678898,1.851975 0,1.336923 -0.01228,2.415277 -0.01228,2.743339 0,0.267347 0.180115,0.578404 0.687554,0.480796 3.970068,-1.324891 6.832808,-5.070584 6.832808,-9.4873775 0,-5.52314215 -4.477508,-10.0002204 -10.0005887,-10.0002204"
       id="path3894"
       style="fill:#777777;fill-opacity:1;fill-rule:evenodd;stroke:none"
       inkscape:connector-curvature="0" />
  </g>
</svg>
